<?xml version="1.0" encoding="utf-8"?>
<!-- Generator: Adobe Illustrator 24.0.1, SVG Export Plug-In . SVG Version: 6.00 Build 0)  -->
<svg version="1.1" id="Layer_1" xmlns="http://www.w3.org/2000/svg" xmlns:xlink="http://www.w3.org/1999/xlink" x="0px" y="0px"
	 viewBox="0 0 200 200" style="enable-background:new 0 0 200 200; fill:#2196F3" xml:space="preserve">
<g>
	<path d="M176.8,162.4c-7.7,0-14.8,0-22.2,0c-0.5-3.5-1-7-1.4-10.6c-0.3-2.7-0.4-5.5-0.5-8.2c-0.2-2.7-0.2-2.7-2.8-2.9
		c-5.3-0.5-10.6-1.1-16-1.6c-2-0.2-3.1-0.8-2.9-3.2c0.4-5.1,0.6-10.3,0.9-15.4c0.1-1.2,0.5-1.8,1.8-1.9c5.7-0.3,11.3-0.9,17-1.1
		c1.9-0.1,2.4-0.7,2.6-2.6c0.4-6.2,1.3-12.4,3.2-18.4c5.9,0,11.6,0,17.4,0.1c0.5,0,1.3,0.9,1.4,1.4c1,5.7,2,11.3,2.8,17
		c0.2,1.8,0.7,2.3,2.5,2.4c5.7,0.3,11.5,0.8,17.2,1.2c1.1,0.1,1.7,0.5,1.8,1.7c0.2,5.7,0.5,11.5,0.6,17.2c0,0.5-1.1,1.3-1.7,1.4
		c-5.2,0.7-10.5,1.4-15.7,1.8c-4.4,0.4-3.7-0.3-4.1,4.2C177.9,150.7,177.3,156.6,176.8,162.4z"/>
	<path d="M159.6,33.8c0.7,0.2,1.4,0.3,2.2,0.5c7,1.7,12.3,8.2,12.3,15.4c0.1,8.9,0,17.8,0,26.8c0,0.3,0,0.5-0.1,0.8
		c-5.4-0.9-10.7-0.9-16.2-0.1c0-9,0-17.9,0-26.9c-47.2,0-94.3,0-141.4,0c0,33.2,0,66.3,0,99.6c0.6,0,1.1,0,1.7,0
		c33.4,0,66.8,0,100.2,0c1,0,1.5,0.3,1.9,1.2c2.8,5.5,6.5,10.2,11,14.3c0.2,0.2,0.5,0.4,0.8,0.6c0,0.1-0.1,0.2-0.1,0.3
		c-0.4,0-0.8,0-1.2,0c-38,0-76,0-114,0c-8.3,0-14.9-5.5-16.4-13.8c0-0.2-0.1-0.5-0.2-0.7c0-34.5,0-69,0-103.5
		c0.1-0.2,0.2-0.4,0.2-0.6c1.4-6.7,5.4-11.1,11.9-13.1c0.8-0.2,1.6-0.4,2.4-0.6C62.9,33.8,111.2,33.8,159.6,33.8z"/>
	<path d="M115.2,136.8c-0.6,0-1.1,0-1.6,0c-25.2,0-50.4,0-75.6,0c-0.1,0-0.3,0-0.4,0c-0.5-0.2-1.3-0.2-1.4-0.5
		c-0.2-0.4,0.1-1.1,0.4-1.6c8.9-13.1,17.8-26.2,26.7-39.3c0.1-0.1,0.2-0.2,0.2-0.4c0.9-1.2,1.7-1.3,2.6,0c1.8,2.6,3.6,5.2,5.3,7.8
		c1.5,2.3,3.1,4.5,4.6,6.8c1.1,1.6,1.9,1.6,2.9,0c6.4-9.4,12.8-18.7,19.1-28.1c0.2-0.3,0.4-0.7,0.7-1c0.6-0.6,1.2-0.6,1.9,0
		c0.2,0.2,0.4,0.5,0.5,0.7c5.6,8.3,11.3,16.6,17,24.9c0.4,0.6,0.5,1.1,0.2,1.8c-3.7,8.9-4.8,18.1-3.3,27.6
		C115.2,135.9,115.2,136.3,115.2,136.8z"/>
	<path d="M48,89.2c-7.2,0-13-5.9-12.9-13.1c0-7.1,5.9-13,13.1-12.9c7.2,0.1,13.1,5.9,13,13.1C61.1,83.4,55.2,89.2,48,89.2z"/>
</g>
</svg>
