<?xml version="1.0" encoding="utf-8"?>
<!-- Generator: Adobe Illustrator 24.0.1, SVG Export Plug-In . SVG Version: 6.00 Build 0)  -->
<svg version="1.1" id="Layer_1" xmlns="http://www.w3.org/2000/svg" xmlns:xlink="http://www.w3.org/1999/xlink" x="0px" y="0px"
	 viewBox="0 0 200 200" style="enable-background:new 0 0 200 200; fill:#2196F3" xml:space="preserve">
<g>
	<path d="M58.8,157c-2.1,0.2-3.9,0.6-5.7,0.6c-5.2,0-8.4-2.9-8.3-8.2c0.2-9.4,2.2-18.4,6-27c3.3-7.5,8.5-13.3,15.9-17
		c1.9-1,3.8-1.9,6.1-3.1c-1.2-0.6-2-1-2.8-1.4c-13.4-6.9-24.5-16.3-32.2-29.4c-2.8-4.7-4-9.9-3.7-15.4c0.1-2.1,1-3.3,3.2-3.3
		c2.2,0,3.4-1.2,3.6-3.3c0.3-2.9,0.3-5.9,0.6-8.8C43.7,22.7,53.8,11,71.7,6.9c13-3,26.1-2.7,38.6,2.6c13.2,5.6,20,16.2,21.9,30.1
		c0.4,2.7,0.4,5.6,0.5,8.3c0.2,3.7,0.9,4.4,4.5,4.8c1.9,0.2,2.4,1.5,2.6,3.2c0.5,6.6-1.6,12.4-5.1,17.8
		c-7.8,11.8-18.3,20.5-30.8,26.9c-0.8,0.4-1.5,0.8-2.7,1.4c1.6,0.9,2.9,1.6,4.2,2.2c5.1,2.5,9.7,5.7,13.2,10.4
		c0.5,0.7,0.9,1.8,0.8,2.6c-0.5,3.2-1.2,6.4-1.8,9.6c-4.5,0.7-8.9,1.3-13.4,2c-6.2,0.9-8.5,2.9-9.5,9.1c-1.3,7.8-1.5,15.8-0.4,23.7
		c0.7,5.4,3,7.4,8.5,8.2c2.2,0.3,4.5,0.7,6.7,1c2.2,0.3,4.3,0.6,6.8,1c0.8,6.5,1.7,13.1,2.5,19.8c-9.5,0-18.8,0-28,0
		c-1.1-5.5-2.2-11-3.3-16.4c-0.2,0-0.5,0-0.7,0c-2,5.2-2.7,10.7-3.5,16.4c-0.6,0.1-1.1,0.2-1.7,0.2c-9,0-18,0-27.1,0
		c-4.5,0-6.4-2.3-5.6-6.7c1-5.3,4.3-9.2,8.1-12.8c1.3-1.2,1.8-2.4,1.7-4.2C58.7,164.5,58.8,160.8,58.8,157z"/>
	<path d="M153,186.6c-8.4,0-16.2,0-24.3,0c-0.5-3.9-1.1-7.7-1.6-11.6c-0.3-3-0.4-6-0.6-9c-0.2-3-0.2-2.9-3.1-3.2
		c-5.8-0.5-11.7-1.2-17.5-1.8c-2.2-0.2-3.4-0.9-3.2-3.5c0.5-5.6,0.7-11.3,0.9-16.9c0.1-1.3,0.5-2,2-2.1c6.2-0.4,12.4-0.9,18.6-1.2
		c2.1-0.1,2.7-0.7,2.8-2.8c0.5-6.8,1.4-13.5,3.5-20.1c6.4,0,12.7,0,19,0.1c0.5,0,1.4,0.9,1.5,1.6c1.1,6.2,2.2,12.4,3,18.6
		c0.3,1.9,0.8,2.6,2.7,2.7c6.3,0.3,12.6,0.9,18.9,1.3c1.3,0.1,1.9,0.5,1.9,1.8c0.2,6.3,0.5,12.6,0.6,18.9c0,0.5-1.2,1.4-1.9,1.5
		c-5.7,0.8-11.5,1.5-17.2,2c-4.9,0.4-4.1-0.3-4.5,4.5C154.2,173.8,153.6,180.2,153,186.6z"/>
</g>
</svg>
